PathFileType	4	(X/Y/Z)	/Users/niels/Desktop/University/Third Semester/Perception and Action/Exam/Gymnastics Motion Tracking/Code for Gym Tracking/Analyzed Data/Webcam_Backflip/id7_2_trajectory_Sports2D/id7_2_trajectory_Sports2D_px_person00.trc
DataRate	CameraRate	NumFrames	NumMarkers	Units	OrigDataRate	OrigDataStartFrame	OrigNumFrames
29.810126582278482	29.810126582278482	6	22	m	29.810126582278482	0	158
Frame#	Time	Hip			RHip			RKnee			RAnkle			RBigToe			RSmallToe			RHeel			LHip			LKnee			LAnkle			LBigToe			LSmallToe			LHeel			Neck			Head			Nose			RShoulder			RElbow			RWrist			LShoulder			LElbow			LWrist		
		X1	Y1	Z1	X2	Y2	Z2	X3	Y3	Z3	X4	Y4	Z4	X5	Y5	Z5	X6	Y6	Z6	X7	Y7	Z7	X8	Y8	Z8	X9	Y9	Z9	X10	Y10	Z10	X11	Y11	Z11	X12	Y12	Z12	X13	Y13	Z13	X14	Y14	Z14	X15	Y15	Z15	X16	Y16	Z16	X17	Y17	Z17	X18	Y18	Z18	X19	Y19	Z19	X20	Y20	Z20	X21	Y21	Z21	X22	Y22	Z22
0	0.0	0.9719738784062735	-0.4504582411066477	0.0	0.9809552552812706	-0.4504617747375654	0.0	1.0155392028668526	-0.3390445953597595	0.0	1.069493849831047	-0.4352313057173797	0.0	1.1053990197947507	-0.42108061390003937	0.0	1.1054091416621254	-0.42750483134991984	0.0	1.0707906889307763	-0.4544841907214856	0.0	0.9655578372502887	-0.4491504639942407	0.0	1.0014560830690222	-0.3467135201980508	0.0	1.063028696332154	-0.4275045389369674	0.0	1.092601965323067	-0.4172377143819735	0.0	1.09131131305685	-0.4185310505593465	0.0	1.068161785389981	-0.4505943611456926	0.0	0.8669690962406233	-0.3619183946475382	0.0	0.8093860528496938	-0.32091890221992303	0.0	0.8541809788473861	-0.31965676284612593	0.0	0.8900329726203161	-0.35809300743239136	0.0	0.9644124258397085	-0.3402231817977192	0.0	1.0183726461084255	-0.3031009486897597	0.0	0.8656633272493531	-0.37729012257502015	0.0	0.944813922154013	-0.3415372219224505	0.0	1.0047375557898754	-0.3134038916195674	0.0
1	0.03354564755838641	0.9845653058233089	-0.42089486641637963	0.0	0.9922113707807174	-0.4187358466216133	0.0	0.9888538504721297	-0.3213641412319789	0.0	1.058314857750658	-0.37710623957814743	0.0	1.081758137477236	-0.35292319179443504	0.0	1.0872398545037796	-0.3582619325044248	0.0	1.0616542206406736	-0.39181511898846166	0.0	0.9759855448331963	-0.42096345693415266	0.0	0.9739844752033671	-0.3308614533298247	0.0	1.0490669088832265	-0.3728505479014484	0.0	1.073649778102228	-0.3529397903460812	0.0	1.070867951498823	-0.3544285902183279	0.0	1.0597168718135515	-0.3891330349307999	0.0	0.868712035741864	-0.37482551427743205	0.0	0.808849288676077	-0.3545551851556961	0.0	0.8481924148636856	-0.34205986714331343	0.0	0.8927043166041487	-0.36585040832721594	0.0	0.9615227951425488	-0.33681001599728816	0.0	0.9984058340726083	-0.2947022689219107	0.0	0.8727698154963142	-0.3865336853710245	0.0	0.9389952124322285	-0.34759631414181397	0.0	0.9822588592714473	-0.313302928435509	0.0
2	0.06709129511677282	0.9947981418466166	-0.3917161480577493	0.0	1.0011389253006575	-0.38792273311324427	0.0	0.9624652306476515	-0.3079626522203244	0.0	1.0435229900919656	-0.32364040385225135	0.0	1.0529067459284116	-0.2920927272758553	0.0	1.0628065175664052	-0.2959379634019891	0.0	1.0482216805658833	-0.3335396917598551	0.0	0.9838426762681223	-0.39300075217631586	0.0	0.9474884897225252	-0.31815146711053227	0.0	1.0322500178757865	-0.3227715053026882	0.0	1.050046862622396	-0.29500384676688957	0.0	1.0461920699139673	-0.29647118119135385	0.0	1.0469139200346715	-0.3320373412937027	0.0	0.8734819471574905	-0.388289379305699	0.0	0.8134517718026031	-0.38891574018656166	0.0	0.8458233497650693	-0.3661227965191589	0.0	0.8974975839605398	-0.3744941817604125	0.0	0.9583491027322678	-0.3336606600695886	0.0	0.9781337970532723	-0.28723808726213157	0.0	0.8816801565830573	-0.3960307213096515	0.0	0.9349628534199811	-0.35202381457904064	0.0	0.9629028329106717	-0.31422708116332976	0.0
3	0.10063694267515924	1.000838618897385	-0.3638603475425902	0.0	1.0058700718529598	-0.3592703991157305	0.0	0.9373130944745514	-0.30183221967540735	0.0	1.022309343825401	-0.27935090462721635	0.0	1.0159615692718154	-0.24515091961923774	0.0	1.028517022438484	-0.24696923316421227	0.0	1.0273134886643156	-0.28405754662622995	0.0	0.9875157093509273	-0.36641500034056795	0.0	0.9236510626593228	-0.31138341708259126	0.0	1.0105507330032768	-0.281548915240335	0.0	1.0189638751346692	-0.24933988552071487	0.0	1.0146777215966936	-0.2505343395484376	0.0	1.0268563418475747	-0.28351018364861025	0.0	0.8836672082898865	-0.40214446859680064	0.0	0.8271628062451085	-0.42314531615396905	0.0	0.8502301861463235	-0.39209378991908433	0.0	0.9061007844262131	-0.3840281973534677	0.0	0.9549234682596983	-0.33134623499624594	0.0	0.9580093309605652	-0.282497095914762	0.0	0.8939287412705992	-0.4056896729369274	0.0	0.9337581955682075	-0.35437739414525365	0.0	0.9492224568728953	-0.3173328076610963	0.0
4	0.13418259023354565	1.0018168241843646	-0.3388034790203813	0.0	1.0054657126976907	-0.334229180467565	0.0	0.9150281425571479	-0.30380604280386486	0.0	0.993423825305233	-0.24779813604845374	0.0	0.9713123278851752	-0.21658247549510895	0.0	0.9845407488938722	-0.21606974605726137	0.0	0.9977444797738495	-0.2469665167769864	0.0	0.9869371141785959	-0.34298338858902966	0.0	0.9044274622364372	-0.31195400521947403	0.0	0.9829822594839774	-0.25220652404079225	0.0	0.9799790777787631	-0.22003191045589754	0.0	0.9759173154256305	-0.22094088382349533	0.0	0.9986323424441045	-0.24676919335787745	0.0	0.9003223170220427	-0.41532372761336267	0.0	0.851524943555632	-0.4545553198936795	0.0	0.8634110026192342	-0.4183768399081687	0.0	0.9192160799535017	-0.3935114231681685	0.0	0.9516875599926369	-0.3307480322778504	0.0	0.9392421033869619	-0.282956650285749	0.0	0.910463964503143	-0.4149471763916331	0.0	0.9358010346329809	-0.3559714372398759	0.0	0.942522794758728	-0.3237445007418804	0.0
5	0.16772823779193205	0.997890673568582	-0.3182091228572891	0.0	1.0000759653322702	-0.31423022367425923	0.0	0.897423495751942	-0.3129620239973953	0.0	0.9576162510718284	-0.23135353097134115	0.0	0.9223054357498616	-0.20857512668356717	0.0	0.9344420297585965	-0.20576753659793537	0.0	0.9604775771125934	-0.224846466892229	0.0	0.9832932393097528	-0.3241886314960226	0.0	0.8910840638544354	-0.31942274094847545	0.0	0.9498536041180966	-0.23644849528233416	0.0	0.9348568632005638	-0.20919023146081053	0.0	0.9316933473511636	-0.21017326183290638	0.0	0.9630668410103874	-0.22415691048859365	0.0	0.9228246933008063	-0.42620551292376313	0.0	0.885300586873903	-0.4796837865264231	0.0	0.8857041019627879	-0.44213721820744395	0.0	0.9363949238675192	-0.4016436387704687	0.0	0.9493571984242044	-0.3327708817470102	0.0	0.9233775967203678	-0.29077634078451403	0.0	0.9313980785291353	-0.4226866561867707	0.0	0.9417216982850007	-0.3589277885746235	0.0	0.9431431257311437	-0.3341479807611314	0.0
